<svg width="16" height="25.000000000000004" xmlns="http://www.w3.org/2000/svg" version="1.1">
 <!-- Generator: Sketch 48.2 (47327) - http://www.bohemiancoding.com/sketch -->
 <title>图形</title>
 <desc>Created with Sketch.</desc>
 <defs>
  <linearGradient x1="62.1023273%" y1="0%" x2="91.0524889%" y2="25.1599668%" id="linearGradient-1">
   <stop stop-color="#2E7EFF" offset="0%"/>
   <stop stop-color="#FFFFFF" offset="100%"/>
  </linearGradient>
 </defs>
 <g>
  <title>background</title>
  <rect x="-1" y="-1" width="18" height="27" id="canvas_background" fill="none"/>
 </g>
 <g>
  <title>Layer 1</title>
  <g id="首页" fill="none" fill-rule="evenodd">
   <g id="图形" transform="rotate(135 -271.00579833984375,68.16143035888672) translate(68.5,46) scale(-1,1) translate(-68.5,-46) translate(56,36) ">
    <path d="m77.62203,-31.24822l-14.25075,14.13765c-0.85367,0.84516 2.53871,2.93971 2.75118,2.72935l12.68027,-12.55396c0.21248,-0.21036 0.53495,-0.21036 0.74743,0l5.04716,4.99688c0.76452,0.7569 2.00405,0.7569 2.76857,0c0.76451,-0.7569 0.76451,-1.98409 0,-2.74099l-6.65698,-6.59068c-0.85717,-0.82687 -2.23649,-0.82017 -3.08688,0.02175z" id="Shape" fill="url(#linearGradient-1)" fill-rule="nonzero"/>
    <path d="m77.62203,-31.24822l-14.25075,14.13765c-0.44208,0.43767 -0.26746,1.53594 0.45049,2.24218c0.66844,0.65753 1.85117,0.9588 2.31363,0.50001c0.63945,-0.63438 4.8619,-4.82331 12.66733,-12.5668c0.52906,-0.45193 1.39228,-1.36729 2.65991,-1.58138c0.94209,-0.15911 1.97204,0.19108 3.08987,1.05057c-0.74734,-0.73989 -2.02854,-2.00788 -3.8436,-3.80398c-0.85717,-0.82687 -2.23649,-0.82017 -3.08688,0.02175z" id="Shape" fill="#FFFFFF" fill-rule="nonzero"/>
    <ellipse id="Combined-Shape" stroke="#FFFFFF" stroke-width="0.5" cx="77.784" cy="-14.338095" rx="2.352" ry="2.328571"/>
   </g>
  </g>
  <text fill="#ffffff" stroke="#ffffff" stroke-width="0" x="3.557359" y="19.947804" id="svg_2" font-size="14" font-family="Helvetica, Arial, sans-serif" text-anchor="start" xml:space="preserve" font-weight="normal">T</text>
  <line stroke-linecap="null" stroke-linejoin="null" id="svg_1" y2="4.539509" x2="14.395737" y1="10.539418" x1="2.145923" fill-opacity="null" stroke-width="0.6" stroke="#ffffff" fill="none"/>
  <line stroke-linecap="null" stroke-linejoin="null" id="svg_3" y2="9.914428" x2="8.020834" y1="7.831126" x1="8.0625" fill-opacity="null" stroke-width="0.6" stroke="#ffffff" fill="none"/>
  <path id="svg_4" d="m10.72423,9.178168l0.124998,-0.291662l0.333328,0l0.124998,0.291662l-0.124998,0.291662l-0.333328,0l-0.124998,-0.291662z" fill-opacity="null" stroke-width="0.6" stroke="#ffffff" fill="none"/>
 </g>
</svg>