<svg width="16" height="25" xmlns="http://www.w3.org/2000/svg" version="1.1">
 <!-- Generator: Sketch 48.2 (47327) - http://www.bohemiancoding.com/sketch -->
 <title>图形</title>
 <desc>Created with Sketch.</desc>
 <defs>
  <linearGradient x1="62.1023273%" y1="0%" x2="91.0524889%" y2="25.1599668%" id="linearGradient-1">
   <stop stop-color="#2E7EFF" offset="0%"/>
   <stop stop-color="#FFFFFF" offset="100%"/>
  </linearGradient>
 </defs>
 <g>
  <title>background</title>
  <rect x="-1" y="-1" width="18" height="27" id="canvas_background" fill="none"/>
 </g>
 <g>
  <title>Layer 1</title>
  <g id="首页" fill="none" fill-rule="evenodd">
   <g id="图形" transform="rotate(135 -271.00579833984375,68.16143035888672) translate(68.5,46) scale(-1,1) translate(-68.5,-46) translate(56,36) ">
    <path d="m77.62203,-31.24822l-14.25075,14.13765c-0.85367,0.84516 2.53871,2.93971 2.75118,2.72935l12.68027,-12.55396c0.21248,-0.21036 0.53495,-0.21036 0.74743,0l5.04716,4.99688c0.76452,0.7569 2.00405,0.7569 2.76857,0c0.76451,-0.7569 0.76451,-1.98409 0,-2.74099l-6.65698,-6.59068c-0.85717,-0.82687 -2.23649,-0.82017 -3.08688,0.02175z" id="Shape" fill="url(#linearGradient-1)" fill-rule="nonzero"/>
    <path d="m77.62203,-31.24822l-14.25075,14.13765c-0.44208,0.43767 -0.26746,1.53594 0.45049,2.24218c0.66844,0.65753 1.85117,0.9588 2.31363,0.50001c0.63945,-0.63438 4.8619,-4.82331 12.66733,-12.5668c0.52906,-0.45193 1.39228,-1.36729 2.65991,-1.58138c0.94209,-0.15911 1.97204,0.19108 3.08987,1.05057c-0.74734,-0.73989 -2.02854,-2.00788 -3.8436,-3.80398c-0.85717,-0.82687 -2.23649,-0.82017 -3.08688,0.02175z" id="Shape" fill="#FFFFFF" fill-rule="nonzero"/>
    <ellipse id="Combined-Shape" stroke="#FFFFFF" stroke-width="0.5" cx="77.784" cy="-14.338095" rx="2.352" ry="2.328571"/>
   </g>
  </g>
  <path stroke="#ffffff" d="m6.200756,7.763078c0,0 0,0 0,0c0.232723,0 0.465446,0 0.731415,0c0.299216,0 0.598885,0.020756 0.964139,0c0.333704,-0.018963 0.631676,-0.037879 0.8644,-0.037879c0.299215,0 0.531938,0 0.764662,0c0.166231,0 0.299215,0 0.465446,0c0.166231,0 0.299215,0 0.432199,0c0.099739,0 0.166231,0 0.26597,0c0.033246,0 0.033246,0 0.066493,0c0,0 0,0 0.033245,0c0,0 0,0 0,0l0.033246,0" id="svg_33" fill-opacity="null" stroke-width="0.6" fill="none"/>
  <path d="m5.973483,16.096417c0,0 0,0 0,-0.037879c0,-0.075758 0,-0.227273 0,-0.416667c0,-0.189394 0,-0.378788 0,-0.719698c0,-0.189394 0,-0.492424 0,-0.795455c0,-0.416667 0,-0.833334 0,-1.25c0,-0.416667 0,-0.871213 0,-1.325759c0,-0.681819 0,-1.060607 0,-1.363637c0,-0.303031 0.037879,-0.606061 0.037879,-0.984849c0,-0.189394 0,-0.416667 0,-0.530303c0,-0.113636 0,-0.265152 0,-0.378788c0,-0.113636 0,-0.151515 0,-0.189394c0,0 0,-0.037879 0,-0.037879c0,0 0,0 0,-0.037879c0,0 0,0 0,0c0,-0.037879 0,-0.037879 0,-0.037879c0,0 0,-0.037879 0,-0.075758c0,-0.075758 0.011095,-0.086852 0.037879,-0.113636c0.026784,-0.026784 0,-0.037879 0,-0.037879c0,-0.037879 0,-0.037879 0,-0.037879c0,-0.037879 0,-0.037879 0,-0.037879c0,0 0,-0.037879 0,-0.037879c0,-0.037879 0,-0.037879 0,-0.075758c0,0 0,-0.037879 0,-0.037879c0,0 0,0 0,-0.037879c0,0 0,0 0,0l0,-0.037879" id="svg_34" fill-opacity="null" stroke-width="0.6" stroke="#ffffff" fill="none"/>
  <path d="m7.185605,9.694897c0,0 0,0 0.037879,0c0.037879,0 0.378788,0 0.64394,0c0.378788,0 0.984849,0 1.287879,0c0.340909,0 0.606061,0 0.795455,0c0.189394,0 0.34091,0 0.454546,0c0.113636,0 0.151515,0 0.227273,0c0.037879,0 0.113636,0 0.113636,0l0.037879,0l0,0l0,0" id="svg_36" fill-opacity="null" stroke-width="0.6" stroke="#ffffff" fill="none"/>
  <path stroke="#ffffff" d="m9.875001,16.020659c0,-0.050298 0,-0.352087 0,-0.80477c0,-0.855068 0,-1.760434 0,-2.414309c0,-0.754472 0,-1.508944 0,-2.213117c0,-0.402385 0,-0.553279 0,-0.603577c0,-0.050298 0,-0.050298 0,-0.050298c0,-0.050298 0,-0.050298 0,-0.050298c0,0 0,0 0,0.100597l0,0.050298" id="svg_40" fill-opacity="null" stroke-width="1.8" fill="none"/>
 </g>
</svg>