<svg width="16" height="25" xmlns="http://www.w3.org/2000/svg" version="1.1">
 <!-- Generator: Sketch 48.2 (47327) - http://www.bohemiancoding.com/sketch -->
 <title>图形</title>
 <desc>Created with Sketch.</desc>
 <defs>
  <linearGradient x1="62.1023273%" y1="0%" x2="91.0524889%" y2="25.1599668%" id="linearGradient-1">
   <stop stop-color="#2E7EFF" offset="0%"/>
   <stop stop-color="#FFFFFF" offset="100%"/>
  </linearGradient>
 </defs>
 <g>
  <title>background</title>
  <rect x="-1" y="-1" width="18" height="27" id="canvas_background" fill="none"/>
 </g>
 <g>
  <title>Layer 1</title>
  <g id="首页" fill="none" fill-rule="evenodd">
   <g id="图形" transform="rotate(135 -271.00579833984375,68.16143035888672) translate(68.5,46) scale(-1,1) translate(-68.5,-46) translate(56,36) ">
    <path d="m77.62203,-31.24822l-14.25075,14.13765c-0.85367,0.84516 2.53871,2.93971 2.75118,2.72935l12.68027,-12.55396c0.21248,-0.21036 0.53495,-0.21036 0.74743,0l5.04716,4.99688c0.76452,0.7569 2.00405,0.7569 2.76857,0c0.76451,-0.7569 0.76451,-1.98409 0,-2.74099l-6.65698,-6.59068c-0.85717,-0.82687 -2.23649,-0.82017 -3.08688,0.02175z" id="Shape" fill="url(#linearGradient-1)" fill-rule="nonzero"/>
    <path d="m77.62203,-31.24822l-14.25075,14.13765c-0.44208,0.43767 -0.26746,1.53594 0.45049,2.24218c0.66844,0.65753 1.85117,0.9588 2.31363,0.50001c0.63945,-0.63438 4.8619,-4.82331 12.66733,-12.5668c0.52906,-0.45193 1.39228,-1.36729 2.65991,-1.58138c0.94209,-0.15911 1.97204,0.19108 3.08987,1.05057c-0.74734,-0.73989 -2.02854,-2.00788 -3.8436,-3.80398c-0.85717,-0.82687 -2.23649,-0.82017 -3.08688,0.02175z" id="Shape" fill="#FFFFFF" fill-rule="nonzero"/>
    <ellipse id="Combined-Shape" stroke="#FFFFFF" stroke-width="0.5" cx="77.784" cy="-14.338095" rx="2.352" ry="2.328571"/>
   </g>
  </g>
  <path d="m6.238635,5.717622c0,0 0,0 0,0.075758c0,1.098485 0,2.348486 0,3.82576c0,1.098485 0,2.424244 0,3.750002c0,1.250001 0,2.045456 0,2.878791c0,0.60606 0,0.94697 0,1.439394c0,0.30303 0,0.530304 0,0.681818c0,0.151516 0,0.227274 0,0.303032c0,0.037878 0,0.075756 0,0.075756l0,0.03788" id="svg_26" fill-opacity="null" stroke-width="0.6" stroke="#ffffff" fill="none"/>
  <path d="m6.465908,6.020652c0,0 0,0 0.075758,0c0.416667,0 0.833334,0 1.250001,0c0.416667,0 1.022728,0 1.401516,0c0.454546,0 0.94697,0 1.439395,0c0.454546,0 1.022728,0 1.401516,0c0.340909,0 0.527953,-0.056754 0.757576,-0.075758c0.0755,-0.006248 0.189394,0 0.227273,0c0.037879,0 0.075758,0 0.113636,0c0.037879,0 0.075758,0 0.075758,0c0,0 0.037879,0 0.037879,0l0,0l0,0l0,0" id="svg_27" fill-opacity="null" stroke-width="0.6" stroke="#ffffff" fill="none"/>
  <path d="m7.98106,8.937321c0,0 0,0 0.151515,0c0.303031,0 0.795455,0 1.212122,0c0.416667,0 0.569288,0.022395 0.795455,0c0.192204,-0.019032 0.303031,-0.037879 0.378788,-0.037879c0.075758,0 0.075758,-0.037879 0.151515,-0.037879c0,0 0.037879,0 0.037879,0c0.037879,0 0.113637,0 0.189394,0c0.075758,0 0.151516,0 0.227273,0c0.037879,0 0.075758,0 0.113637,0c0,0 0.037879,0 0.037879,0c0,0 0.037878,0 0.037878,0l0,0" id="svg_30" fill-opacity="null" stroke-width="0.6" stroke="#ffffff" fill="none"/>
  <path d="m11.46591,8.558532c0,0 0,0.075758 0,0.189394c0,0.492425 0,1.363637 0,2.424244c0,1.704547 0,2.651517 0,3.219699c0,0.606062 0,1.098486 0,1.439396c0,0.227272 0,0.492424 0,0.681818c0,0.113636 -0.037878,0.189394 -0.037878,0.227272c0,0.03788 0,0.03788 -0.037879,0.03788c0,0 0,0 0,0l0,-0.03788l0,0l0,0" id="svg_31" fill-opacity="null" stroke-width="0.6" stroke="#ffffff" fill="none"/>
  <polyline stroke-linecap="round" id="svg_32" points="8.587121014205202,13.066111266422054 8.587121014205202,13.066111266422054 " fill-opacity="null" stroke-width="0.6" stroke="#ffffff" fill="none"/>
 </g>
</svg>